<mxfile host="65bd71144e">
    <diagram id="-O_0z88nFIbGi3j7XrE8" name="ページ1">
        <mxGraphModel dx="65" dy="610" grid="1" gridSize="10" guides="1" tooltips="1" connect="1" arrows="1" fold="1" page="1" pageScale="1" pageWidth="827" pageHeight="1169" math="0" shadow="0">
            <root>
                <mxCell id="0"/>
                <mxCell id="1" parent="0"/>
                <mxCell id="2" value="ネットワーク経由で複数マシンからアクセス" style="text;html=1;align=center;verticalAlign=middle;resizable=0;points=[];autosize=1;strokeColor=none;fillColor=none;" parent="1" vertex="1">
                    <mxGeometry x="39" y="216" width="260" height="30" as="geometry"/>
                </mxCell>
                <mxCell id="23" value="" style="edgeStyle=none;html=1;" parent="1" source="3" target="2" edge="1">
                    <mxGeometry relative="1" as="geometry"/>
                </mxCell>
                <mxCell id="3" value="クライアント端末" style="text;html=1;align=center;verticalAlign=middle;resizable=0;points=[];autosize=1;strokeColor=none;fillColor=none;" parent="1" vertex="1">
                    <mxGeometry x="39" y="246" width="120" height="30" as="geometry"/>
                </mxCell>
                <mxCell id="6" style="edgeStyle=none;html=1;fillColor=#dae8fc;strokeColor=#6c8ebf;" parent="1" source="4" edge="1">
                    <mxGeometry relative="1" as="geometry">
                        <mxPoint x="329" y="321" as="targetPoint"/>
                    </mxGeometry>
                </mxCell>
                <mxCell id="7" value="検索条件" style="edgeLabel;html=1;align=center;verticalAlign=middle;resizable=0;points=[];" parent="6" vertex="1" connectable="0">
                    <mxGeometry x="-0.316" y="-1" relative="1" as="geometry">
                        <mxPoint x="15" y="-14" as="offset"/>
                    </mxGeometry>
                </mxCell>
                <mxCell id="4" value="" style="fontColor=#0066CC;verticalAlign=top;verticalLabelPosition=bottom;labelPosition=center;align=center;html=1;outlineConnect=0;fillColor=#CCCCCC;strokeColor=#6881B3;gradientColor=none;gradientDirection=north;strokeWidth=2;shape=mxgraph.networks.pc;" parent="1" vertex="1">
                    <mxGeometry x="29" y="284" width="100" height="70" as="geometry"/>
                </mxCell>
                <mxCell id="8" value="" style="shape=mxgraph.cisco.computers_and_peripherals.ibm_tower;html=1;pointerEvents=1;dashed=0;fillColor=#036897;strokeColor=#ffffff;strokeWidth=2;verticalLabelPosition=bottom;verticalAlign=top;align=center;outlineConnect=0;" parent="1" vertex="1">
                    <mxGeometry x="349" y="284" width="42" height="77" as="geometry"/>
                </mxCell>
                <mxCell id="9" value="" style="image;html=1;image=img/lib/clip_art/computers/Database_128x128.png" parent="1" vertex="1">
                    <mxGeometry x="391" y="314" width="58" height="47" as="geometry"/>
                </mxCell>
                <mxCell id="10" value="管理サーバー" style="text;html=1;align=center;verticalAlign=middle;resizable=0;points=[];autosize=1;strokeColor=none;fillColor=none;" parent="1" vertex="1">
                    <mxGeometry x="349" y="246" width="100" height="30" as="geometry"/>
                </mxCell>
                <mxCell id="11" value="取引企業情報" style="text;html=1;align=center;verticalAlign=middle;resizable=0;points=[];autosize=1;strokeColor=none;fillColor=none;" parent="1" vertex="1">
                    <mxGeometry x="349" y="371" width="100" height="30" as="geometry"/>
                </mxCell>
                <mxCell id="13" value="" style="endArrow=classic;html=1;fillColor=#dae8fc;strokeColor=#6c8ebf;" parent="1" edge="1">
                    <mxGeometry width="50" height="50" relative="1" as="geometry">
                        <mxPoint x="319" y="351" as="sourcePoint"/>
                        <mxPoint x="129" y="351" as="targetPoint"/>
                    </mxGeometry>
                </mxCell>
                <mxCell id="14" value="抽出データ" style="edgeLabel;html=1;align=center;verticalAlign=middle;resizable=0;points=[];" parent="1" vertex="1" connectable="0">
                    <mxGeometry x="229.0067275010092" y="320.6042435007422" as="geometry">
                        <mxPoint x="-6" y="49" as="offset"/>
                    </mxGeometry>
                </mxCell>
                <mxCell id="15" value="" style="fontColor=#0066CC;verticalAlign=top;verticalLabelPosition=bottom;labelPosition=center;align=center;html=1;outlineConnect=0;fillColor=#CCCCCC;strokeColor=#6881B3;gradientColor=none;gradientDirection=north;strokeWidth=2;shape=mxgraph.networks.pc;" parent="1" vertex="1">
                    <mxGeometry x="59" y="491" width="100" height="70" as="geometry"/>
                </mxCell>
                <mxCell id="16" value="" style="endArrow=classic;html=1;fillColor=#dae8fc;strokeColor=#6c8ebf;" parent="1" edge="1">
                    <mxGeometry width="50" height="50" relative="1" as="geometry">
                        <mxPoint x="169" y="491" as="sourcePoint"/>
                        <mxPoint x="329" y="381" as="targetPoint"/>
                    </mxGeometry>
                </mxCell>
                <mxCell id="17" value="検索条件" style="edgeLabel;html=1;align=center;verticalAlign=middle;resizable=0;points=[];rotation=325;" parent="16" vertex="1" connectable="0">
                    <mxGeometry x="-0.2023" y="3" relative="1" as="geometry">
                        <mxPoint x="-12" as="offset"/>
                    </mxGeometry>
                </mxCell>
                <mxCell id="18" value="" style="endArrow=classic;html=1;fillColor=#dae8fc;strokeColor=#6c8ebf;" parent="1" edge="1">
                    <mxGeometry width="50" height="50" relative="1" as="geometry">
                        <mxPoint x="349" y="421" as="sourcePoint"/>
                        <mxPoint x="179" y="541" as="targetPoint"/>
                    </mxGeometry>
                </mxCell>
                <mxCell id="19" value="抽出データ" style="edgeLabel;html=1;align=center;verticalAlign=middle;resizable=0;points=[];rotation=325;" parent="1" vertex="1" connectable="0">
                    <mxGeometry x="228.75164169469008" y="454.905154865098" as="geometry">
                        <mxPoint x="-4.51298648428331" y="51.77482933813184" as="offset"/>
                    </mxGeometry>
                </mxCell>
                <mxCell id="20" value="" style="endArrow=classic;html=1;fillColor=#ffe6cc;strokeColor=#d79b00;" parent="1" edge="1">
                    <mxGeometry width="50" height="50" relative="1" as="geometry">
                        <mxPoint x="389" y="551" as="sourcePoint"/>
                        <mxPoint x="389" y="411" as="targetPoint"/>
                    </mxGeometry>
                </mxCell>
                <mxCell id="21" value="取引企業情報&lt;br&gt;登録・保守" style="text;html=1;align=left;verticalAlign=middle;resizable=0;points=[];autosize=1;strokeColor=none;fillColor=none;" parent="1" vertex="1">
                    <mxGeometry x="403" y="461" width="100" height="40" as="geometry"/>
                </mxCell>
                <mxCell id="22" value="" style="fontColor=#0066CC;verticalAlign=top;verticalLabelPosition=bottom;labelPosition=center;align=center;html=1;outlineConnect=0;fillColor=#CCCCCC;strokeColor=#6881B3;gradientColor=none;gradientDirection=north;strokeWidth=2;shape=mxgraph.networks.pc;" parent="1" vertex="1">
                    <mxGeometry x="329" y="561" width="100" height="70" as="geometry"/>
                </mxCell>
                <mxCell id="24" value="利用者" style="text;html=1;align=center;verticalAlign=middle;resizable=0;points=[];autosize=1;strokeColor=none;fillColor=none;" parent="1" vertex="1">
                    <mxGeometry x="59" y="361" width="60" height="30" as="geometry"/>
                </mxCell>
                <mxCell id="25" value="利用者" style="text;html=1;align=center;verticalAlign=middle;resizable=0;points=[];autosize=1;strokeColor=none;fillColor=none;" parent="1" vertex="1">
                    <mxGeometry x="89" y="571" width="60" height="30" as="geometry"/>
                </mxCell>
                <mxCell id="26" value="管理者" style="text;html=1;align=center;verticalAlign=middle;resizable=0;points=[];autosize=1;strokeColor=none;fillColor=none;" parent="1" vertex="1">
                    <mxGeometry x="359" y="641" width="60" height="30" as="geometry"/>
                </mxCell>
                <mxCell id="27" value="&lt;b&gt;利用者操作&lt;/b&gt;" style="text;html=1;align=center;verticalAlign=middle;resizable=0;points=[];autosize=1;strokeColor=none;fillColor=none;" parent="1" vertex="1">
                    <mxGeometry x="479" y="246" width="80" height="30" as="geometry"/>
                </mxCell>
                <mxCell id="28" value="・初めて利用する場合は、ユーザ登録を行う&lt;br&gt;・ブラウザよりログインして利用する&lt;br&gt;・ブラウザを利用して、条件を入力し情報&lt;br&gt;　を取得する。" style="text;html=1;align=left;verticalAlign=middle;resizable=0;points=[];autosize=1;strokeColor=none;fillColor=none;" parent="1" vertex="1">
                    <mxGeometry x="489" y="271" width="260" height="70" as="geometry"/>
                </mxCell>
                <mxCell id="29" value="&lt;b&gt;管理者操作&lt;/b&gt;" style="text;html=1;align=center;verticalAlign=middle;resizable=0;points=[];autosize=1;strokeColor=none;fillColor=none;" parent="1" vertex="1">
                    <mxGeometry x="479" y="346" width="80" height="30" as="geometry"/>
                </mxCell>
                <mxCell id="30" value="・ブラウザよりログインして利用する&lt;br&gt;・ブラウザより企業情報を登録・保守を行い&lt;br&gt;　データベースを管理する" style="text;html=1;align=left;verticalAlign=middle;resizable=0;points=[];autosize=1;strokeColor=none;fillColor=none;" parent="1" vertex="1">
                    <mxGeometry x="489" y="376" width="260" height="60" as="geometry"/>
                </mxCell>
                <mxCell id="31" value="u　" style="rhombus;whiteSpace=wrap;html=1;" vertex="1" parent="1">
                    <mxGeometry y="270" width="80" height="80" as="geometry"/>
                </mxCell>
            </root>
        </mxGraphModel>
    </diagram>
</mxfile>